<?xml version="1.0" encoding="utf-8"?>
<!-- Generator: Adobe Illustrator 16.0.0, SVG Export Plug-In . SVG Version: 6.00 Build 0)  -->
<!DOCTYPE svg PUBLIC "-//W3C//DTD SVG 1.1//EN" "http://www.w3.org/Graphics/SVG/1.1/DTD/svg11.dtd">
<svg version="1.1" id="Layer_1" xmlns="http://www.w3.org/2000/svg" xmlns:xlink="http://www.w3.org/1999/xlink" x="0px" y="0px"
	 width="143.15px" height="96.38px" viewBox="0 0 143.15 96.38" enable-background="new 0 0 143.15 96.38" xml:space="preserve">
<g>
	<g>
		<polygon fill="#8E8F8F" points="122.101,54.727 132.397,34.061 142.694,35.561 142.694,46.602 122.101,67.191 		"/>
		<polygon fill="#757777" points="122.101,67.191 93.415,38.307 93.415,26.036 122.101,54.727 		"/>
		<polygon fill="#ABAAAA" points="122.101,54.727 93.415,26.036 103.712,5.203 132.397,34.061 		"/>
		<polygon fill="#C9C7C7" points="132.397,34.061 103.712,5.203 114.009,6.703 142.694,35.561 		"/>
	</g>
	<g>
		
			<rect x="96.896" y="40.899" transform="matrix(-0.7071 0.7071 -0.7071 -0.7071 210.1983 9.1762)" fill="#ABAAAA" width="12.606" height="14.445"/>
		<polygon fill="#8E8F8F" points="103.794,66.787 112.755,57.881 112.755,48.764 103.794,57.67 		"/>
	</g>
	<g>
		<polygon fill="#8E8F8F" points="93.328,83.5 103.625,62.834 113.921,64.334 113.921,75.375 93.328,95.965 		"/>
		<polygon fill="#757777" points="93.328,95.965 30.999,33.438 30.999,21.167 93.328,83.5 		"/>
		<polygon fill="#ABAAAA" points="93.328,83.5 30.999,21.167 41.296,0.333 103.625,62.834 		"/>
		<polygon fill="#C9C7C7" points="103.624,62.834 41.295,0.333 51.592,1.833 113.921,64.334 		"/>
	</g>
	<g>
		
			<rect x="32.468" y="33.972" transform="matrix(-0.7071 0.7071 -0.7071 -0.7071 95.3152 42.9104)" fill="#ABAAAA" width="12.606" height="14.445"/>
		<polygon fill="#8E8F8F" points="39.367,59.86 48.328,50.953 48.328,41.836 39.366,50.743 		"/>
	</g>
	<g>
		<polygon fill="#8E8F8F" points="29.141,77.096 39.438,56.429 49.734,57.929 49.734,68.971 29.141,89.56 		"/>
		<polygon fill="#757777" points="29.141,89.56 0.455,60.676 0.455,48.404 29.141,77.096 		"/>
		<polygon fill="#ABAAAA" points="29.141,77.096 0.455,48.404 10.752,27.571 39.438,56.429 		"/>
		<polygon fill="#C9C7C7" points="39.438,56.429 10.751,27.571 21.048,29.071 49.734,57.929 		"/>
	</g>
</g>
</svg>
