<?xml version="1.0" encoding="utf-8"?>
<!-- Generator: Adobe Illustrator 16.0.0, SVG Export Plug-In . SVG Version: 6.00 Build 0)  -->
<!DOCTYPE svg PUBLIC "-//W3C//DTD SVG 1.1//EN" "http://www.w3.org/Graphics/SVG/1.1/DTD/svg11.dtd">
<svg version="1.1" id="Layer_1" xmlns="http://www.w3.org/2000/svg" xmlns:xlink="http://www.w3.org/1999/xlink" x="0px" y="0px"
	 width="85.04px" height="96.38px" viewBox="0 0 85.04 96.38" enable-background="new 0 0 85.04 96.38" xml:space="preserve">
<g>
	<g>
		<polygon fill="#2D2E2E" points="63.061,83.479 73.357,62.812 83.653,64.312 83.653,75.354 63.061,95.943 		"/>
		<polygon fill="#1E1F1F" points="63.061,95.943 0.731,33.417 0.731,21.146 63.061,83.479 		"/>
		<polygon fill="#444444" points="63.061,83.479 0.731,21.146 11.028,0.312 73.357,62.812 		"/>
		<polygon fill="#606060" points="73.356,62.812 11.028,0.312 21.325,1.812 83.653,64.312 		"/>
	</g>
	<g>
		
			<rect x="17.223" y="42.771" transform="matrix(-0.7071 0.7071 -0.7071 -0.7071 79.7565 78.954)" fill="#444444" width="12.606" height="26.447"/>
		<polygon fill="#2D2E2E" points="28.377,78.916 37.338,70.009 37.338,60.893 28.377,69.799 		"/>
		<polygon fill="#1E1F1F" points="28.393,78.842 9.685,60.188 9.685,51.07 28.393,69.725 		"/>
	</g>
</g>
</svg>
