<?xml version="1.0" encoding="utf-8"?>
<!-- Generator: Adobe Illustrator 16.0.0, SVG Export Plug-In . SVG Version: 6.00 Build 0)  -->
<!DOCTYPE svg PUBLIC "-//W3C//DTD SVG 1.1//EN" "http://www.w3.org/Graphics/SVG/1.1/DTD/svg11.dtd">
<svg version="1.1" id="Layer_1" xmlns="http://www.w3.org/2000/svg" xmlns:xlink="http://www.w3.org/1999/xlink" x="0px" y="0px"
	 width="2.83px" height="5.67px" viewBox="0 0 2.83 5.67" enable-background="new 0 0 2.83 5.67" xml:space="preserve">
<g>
	<path fill="#FFE500" d="M2.79,2.305L2.204,1.719c-0.038-0.038-0.1-0.038-0.138,0L1.873,1.912c-0.055,0.055-0.14,0.083-0.212,0.051
		C1.248,1.786,1.025,1.564,0.854,1.158c-0.03-0.071-0.002-0.156,0.052-0.21l0.195-0.195c0.038-0.038,0.038-0.1,0-0.138L0.515,0.029
		c-0.038-0.038-0.1-0.038-0.138,0L0.154,0.252C0.021,0.385-0.023,0.585,0.039,0.763c0.344,0.984,1.016,1.655,2.016,2.013
		c0.179,0.064,0.381,0.021,0.515-0.113L2.79,2.442C2.829,2.404,2.829,2.343,2.79,2.305z"/>
	<path fill="#FFE500" d="M1.688,1.263c0.036,0,0.072-0.014,0.099-0.041L2.39,0.62v0.222c0,0.078,0.062,0.141,0.141,0.141
		c0.077,0,0.141-0.063,0.141-0.141V0.281c0-0.078-0.063-0.141-0.141-0.141H1.97c-0.078,0-0.141,0.063-0.141,0.141
		c0,0.077,0.063,0.14,0.141,0.14h0.222L1.59,1.023c-0.055,0.055-0.055,0.144,0,0.198C1.617,1.249,1.653,1.263,1.688,1.263z"/>
</g>
</svg>
