<?xml version="1.0" encoding="utf-8"?>
<!-- Generator: Adobe Illustrator 16.0.0, SVG Export Plug-In . SVG Version: 6.00 Build 0)  -->
<!DOCTYPE svg PUBLIC "-//W3C//DTD SVG 1.1//EN" "http://www.w3.org/Graphics/SVG/1.1/DTD/svg11.dtd">
<svg version="1.1" id="Layer_1" xmlns="http://www.w3.org/2000/svg" xmlns:xlink="http://www.w3.org/1999/xlink" x="0px" y="0px"
	 width="48.19px" height="48.19px" viewBox="0 0 48.19 48.19" enable-background="new 0 0 48.19 48.19" xml:space="preserve">
<g>
	<path fill="#8F8F8F" d="M3.367,30.061l-0.53-0.53l-0.497,0.496l2.393,2.393l0.331-0.331l0.433,0.434l-1.248,1.247l-0.433-0.433
		l0.371-0.371l-2.392-2.392L1.298,31.07l0.53,0.529L1.38,32.048l-0.97-0.97l2.437-2.437l0.969,0.97L3.367,30.061z"/>
	<path fill="#8F8F8F" d="M6.757,30.385l0.37-0.37l0.438,0.438l-1.286,1.285L5.841,31.3l0.37-0.369l-2.387-2.387l-0.37,0.369
		l-0.44-0.439l1.402-1.402c0.585-0.585,1.571-0.702,2.154-0.118c0.649,0.649,0.498,1.6-0.019,2.116l-0.555,0.556L6.757,30.385z
		 M5.52,29.147l0.474-0.474c0.34-0.34,0.354-0.813,0.023-1.144c-0.327-0.327-0.842-0.337-1.173-0.006L4.37,27.998L5.52,29.147z"/>
	<path fill="#8F8F8F" d="M12.49,26.894l-0.683-0.683l-2.769,2.769L8.6,28.541l0.372-0.371l-2.387-2.387l-0.372,0.371l-0.439-0.439
		l1.283-1.283l0.44,0.44l-0.366,0.366l2.387,2.387l1.374-1.374l-2.387-2.387l-0.371,0.371l-0.44-0.44l1.287-1.287l0.439,0.439
		l-0.37,0.37l2.387,2.387l0.37-0.37l1.122,1.121L12.49,26.894z"/>
	<path fill="#8F8F8F" d="M12.938,38.712l-0.613-0.613l0.518-0.518l-3.062,0.061l1.501,1.501l0.518-0.519l0.613,0.613l-1.801,1.801
		l-0.613-0.613l0.519-0.519l-3.343-3.343l-0.519,0.519l-0.613-0.613l1.8-1.8l0.613,0.612L7.939,35.8l1.405,1.404l0.129-2.938
		l-0.519,0.519l-0.613-0.613l1.842-1.842l0.613,0.613l-0.403,0.403L10.257,36.7l3.527-0.061l0.518-0.518l0.613,0.613L12.938,38.712z
		"/>
	<path fill="#8F8F8F" d="M15.887,28.97l0.615,0.614l-0.478,0.478l2.169,2.169l0.478-0.478l0.613,0.613l-1.159,1.159l-0.464-0.464
		c0.136,0.478-0.123,1.215-0.566,1.658c-1.008,1.009-2.633,1.035-3.614,0.054c-0.983-0.983-0.955-2.605,0.054-3.614
		c0.451-0.45,1.201-0.695,1.658-0.566l-0.464-0.464L15.887,28.97z M14.175,31.801c-0.613,0.613-0.6,1.621,0.028,2.249
		s1.636,0.642,2.25,0.028c0.614-0.614,0.601-1.623-0.027-2.251S14.79,31.186,14.175,31.801z"/>
	<path fill="#8F8F8F" d="M21.94,29.71l-0.613-0.613l0.478-0.478l-2.169-2.169l-1.67,1.67l2.169,2.169l0.477-0.478l0.613,0.613
		l-1.636,1.637l-0.613-0.613l0.478-0.478l-2.169-2.169l-0.478,0.478l-0.614-0.614l3.988-3.988l0.615,0.614l-0.478,0.478l2.169,2.169
		l0.478-0.478l0.613,0.613L21.94,29.71z"/>
	<path fill="#8F8F8F" d="M26.31,25.341l-0.613-0.613l0.478-0.477l-1.706-1.705l0.553,4.083l-1.064,1.063l-0.613-0.613l0.478-0.477
		l-2.169-2.169l-0.478,0.478l-0.614-0.615l1.636-1.636l0.615,0.614l-0.478,0.478l1.759,1.758l-0.574-4.172l1.03-1.03l0.614,0.615
		L24.686,21.4l2.169,2.168l0.477-0.477l0.613,0.613L26.31,25.341z"/>
	<path fill="#8F8F8F" d="M28.12,16.736l1.126,1.125l-0.587,0.586l-0.511-0.511l-0.729,0.73l2.169,2.169l0.483-0.484l0.613,0.613
		l-1.637,1.636l-0.612-0.613l0.47-0.471l-2.169-2.169l-0.729,0.73l0.511,0.511l-0.586,0.586l-1.126-1.125L28.12,16.736z"/>
	<path fill="#8F8F8F" d="M33.561,18.253c-1.029,1.03-2.668,1.07-3.649,0.088c-0.982-0.983-0.94-2.619,0.089-3.649
		c1.037-1.037,2.674-1.078,3.656-0.095C34.638,15.579,34.598,17.216,33.561,18.253z M30.642,15.334
		c-0.635,0.635-0.635,1.657-0.007,2.285s1.65,0.628,2.284-0.007c0.635-0.635,0.642-1.663,0.014-2.291
		C32.305,14.692,31.276,14.699,30.642,15.334z"/>
	<path fill="#8F8F8F" d="M37.704,13.946l-0.613-0.613l0.403-0.403l-2.729-1.201l1.201,2.729l0.401-0.402l0.613,0.613l-1.576,1.576
		l-0.612-0.613l0.47-0.471l-1.268-3.07l-0.402,0.402l-0.614-0.614l1.309-1.309l3.908,1.658l0.471-0.471l0.613,0.613L37.704,13.946z"
		/>
	<path fill="#8F8F8F" d="M41.875,9.775l-0.613-0.613l0.478-0.478L40.034,6.98l0.553,4.083l-1.064,1.063l-0.612-0.613l0.477-0.477
		l-2.169-2.169l-0.477,0.478L36.126,8.73l1.637-1.636l0.614,0.614L37.9,8.186l1.759,1.759l-0.573-4.174l1.03-1.03l0.614,0.615
		l-0.478,0.478l2.169,2.168l0.478-0.477l0.613,0.613L41.875,9.775z"/>
	<path fill="#8F8F8F" d="M42.574,1.151c-0.28,0.28-0.92,0.608-1.165,0.853c-0.144,0.144-0.361,0.472-0.417,0.729l-0.748-0.149
		c0.054-0.328,0.216-0.695,0.502-0.982c0.191-0.191,0.799-0.484,1.099-0.784c0.185-0.184,0.3-0.451,0.342-0.656l0.824,0.144
		C42.976,0.598,42.779,0.945,42.574,1.151z M46.265,5.385l-0.613-0.613l0.478-0.478l-1.705-1.705l0.552,4.085l-1.063,1.064
		l-0.613-0.613l0.478-0.478l-2.169-2.169L41.13,4.956l-0.614-0.614l1.636-1.637l0.615,0.615l-0.478,0.477l1.759,1.759l-0.573-4.174
		l1.03-1.03l0.614,0.615l-0.478,0.477l2.169,2.169l0.478-0.478l0.613,0.613L46.265,5.385z"/>
</g>
</svg>
