<?xml version="1.0" encoding="utf-8"?>
<!-- Generator: Adobe Illustrator 16.0.0, SVG Export Plug-In . SVG Version: 6.00 Build 0)  -->
<!DOCTYPE svg PUBLIC "-//W3C//DTD SVG 1.1//EN" "http://www.w3.org/Graphics/SVG/1.1/DTD/svg11.dtd">
<svg version="1.1" id="Layer_1" xmlns="http://www.w3.org/2000/svg" xmlns:xlink="http://www.w3.org/1999/xlink" x="0px" y="0px"
	 width="19.84px" height="19.84px" viewBox="0 0 19.84 19.84" enable-background="new 0 0 19.84 19.84" xml:space="preserve">
<path fill="#00A685" d="M14.153,7.324c0-0.297-0.198-0.396-0.396-0.396h-7.72c-0.198,0-0.396,0.198-0.396,0.396l-0.395,6.73
	c0,0.099,0,0.197,0.099,0.297c0.099,0.1,0.198,0.1,0.198,0.1h8.71c0.1,0,0.198-0.1,0.297-0.1c0.1-0.1,0.1-0.198,0.1-0.297
	L14.153,7.324z"/>
<path fill="#00A685" d="M8.413,5.938h2.869c0.198,0,0.297-0.099,0.297-0.297V4.553c0-0.198-0.197-0.296-0.297-0.296H8.61
	c-0.197,0-0.296,0.198-0.296,0.296v1.089C8.115,5.839,8.313,5.938,8.413,5.938"/>
<path fill="#00A685" d="M15.538,15.241c-0.099,0.1-0.297,0.199-0.396,0.199H4.552c-0.198,0-0.296-0.1-0.396-0.199
	c-0.099-0.099-0.197-0.296-0.099-0.396l0.593-8.313c0-0.296,0.298-0.594,0.693-0.594h1.781c0.198,0,0.198-0.198,0.198-0.297V4.256
	c0-0.297,0.296-0.594,0.594-0.594h3.661c0.298,0,0.595,0.297,0.595,0.594v1.385c0,0.198,0.198,0.297,0.297,0.297h1.781
	c0.297,0,0.594,0.297,0.692,0.594l0.594,8.215C15.638,14.945,15.538,15.143,15.538,15.241 M9.897,0C4.454,0,0,4.454,0,9.897
	s4.454,9.897,9.897,9.897s9.897-4.454,9.897-9.897S15.341,0,9.897,0"/>
</svg>
