<?xml version="1.0" encoding="utf-8"?>
<!-- Generator: Adobe Illustrator 16.0.0, SVG Export Plug-In . SVG Version: 6.00 Build 0)  -->
<!DOCTYPE svg PUBLIC "-//W3C//DTD SVG 1.1//EN" "http://www.w3.org/Graphics/SVG/1.1/DTD/svg11.dtd">
<svg version="1.1" id="Layer_1" xmlns="http://www.w3.org/2000/svg" xmlns:xlink="http://www.w3.org/1999/xlink" x="0px" y="0px"
	 width="19.84px" height="19.84px" viewBox="0 0 19.84 19.84" enable-background="new 0 0 19.84 19.84" xml:space="preserve">
<path fill="#00A685" d="M9.907,12.991c-0.693,0-2.377-1.684-2.377-3.072c0-1.188,1.189-1.882,2.18-0.892
	c0.099,0.099,0.197,0.099,0.396,0c0.991-1.189,2.18-0.297,2.18,0.793C12.385,11.108,10.601,12.991,9.907,12.991 M14.268,7.245
	c0-0.198-0.198-0.396-0.397-0.396H6.142c-0.198,0-0.396,0.198-0.396,0.396L5.35,13.981c0,0.102,0,0.2,0.099,0.2
	c0.1,0.099,0.198,0.099,0.298,0.099h8.719c0.099,0,0.198-0.099,0.198-0.099c0.099-0.099,0.099-0.2,0.099-0.2L14.268,7.245z"/>
<path fill="#00A685" d="M8.521,5.956h2.874c0.197,0,0.297-0.099,0.297-0.297v-1.09c0-0.198-0.198-0.297-0.297-0.297H8.719
	c-0.199,0-0.297,0.198-0.297,0.297v1.09C8.224,5.857,8.322,5.956,8.521,5.956"/>
<path fill="#00A685" d="M15.555,15.172c-0.099,0.099-0.197,0.197-0.396,0.197H4.558c-0.199,0-0.199-0.099-0.397-0.197
	c-0.099-0.099-0.197-0.199-0.099-0.396l0.594-8.324c0-0.297,0.298-0.594,0.693-0.594h1.784c0.198,0,0.198-0.198,0.198-0.198V4.272
	c0-0.297,0.297-0.595,0.595-0.595h3.665c0.298,0,0.595,0.199,0.595,0.595v1.387c0,0.198,0.199,0.198,0.199,0.198h1.783
	c0.297,0,0.594,0.198,0.693,0.594l0.594,8.225C15.654,14.973,15.654,15.073,15.555,15.172 M9.908,0.011C4.458,0.011,0,4.47,0,9.919
	s4.458,9.909,9.908,9.909c5.449,0,9.908-4.459,9.908-9.909C19.915,4.47,15.456,0.011,9.908,0.011"/>
</svg>
