<?xml version="1.0" encoding="utf-8"?>
<!-- Generator: Adobe Illustrator 16.0.0, SVG Export Plug-In . SVG Version: 6.00 Build 0)  -->
<!DOCTYPE svg PUBLIC "-//W3C//DTD SVG 1.1//EN" "http://www.w3.org/Graphics/SVG/1.1/DTD/svg11.dtd">
<svg version="1.1" id="Layer_1" xmlns="http://www.w3.org/2000/svg" xmlns:xlink="http://www.w3.org/1999/xlink" x="0px" y="0px"
	 width="19.84px" height="19.84px" viewBox="0 0 19.84 19.84" enable-background="new 0 0 19.84 19.84" xml:space="preserve">
<path fill="#06A685" d="M14.209,12.225H9.821H5.433c0,0-2.089,0-2.089-2.404c0.105-2.299,3.03-3.343,3.03-3.343
	s1.88-0.627,2.821-1.358V3.761H7.313V2.716h1.881v-1.88h1.358v1.88h1.776v1.045h-1.776V5.12c1.044,0.835,2.925,1.462,2.925,1.462
	s2.82,1.045,2.82,3.343C16.298,12.118,14.209,12.225,14.209,12.225 M14.731,17.134c0,0-3.657,1.045-4.807,1.045
	c-1.149,0-4.805-1.045-4.805-1.045v-4.179h9.612V17.134z M9.925,0C4.493,0,0,4.493,0,9.925c0,5.434,4.493,9.925,9.925,9.925
	c5.433,0,9.925-4.491,9.925-9.925C19.85,4.493,15.357,0,9.925,0"/>
</svg>
