<?xml version="1.0" encoding="utf-8"?>
<!-- Generator: Adobe Illustrator 16.0.0, SVG Export Plug-In . SVG Version: 6.00 Build 0)  -->
<!DOCTYPE svg PUBLIC "-//W3C//DTD SVG 1.1//EN" "http://www.w3.org/Graphics/SVG/1.1/DTD/svg11.dtd">
<svg version="1.1" id="Layer_1" xmlns="http://www.w3.org/2000/svg" xmlns:xlink="http://www.w3.org/1999/xlink" x="0px" y="0px"
	 width="19.84px" height="19.84px" viewBox="0 0 19.84 19.84" enable-background="new 0 0 19.84 19.84" xml:space="preserve">
<polygon fill="#00A685" points="15.572,6.744 12.994,6.744 14.283,8.927 "/>
<polygon fill="#00A685" points="4.266,13.19 6.844,13.19 5.654,11.009 "/>
<polygon fill="#00A685" points="9.918,3.472 8.729,5.653 11.209,5.653 "/>
<polygon fill="#00A685" points="9.918,16.464 11.209,14.183 8.729,14.183 "/>
<polygon fill="#00A685" points="6.844,6.744 4.266,6.744 5.654,8.927 "/>
<path fill="#00A685" d="M12.398,14.183l-2.48,4.266l-2.479-4.266H2.479l2.479-4.264L2.479,5.653h4.959l2.479-4.265l2.48,4.265h4.959
	l-2.479,4.266l2.479,4.264H12.398z M9.918,0C4.463,0,0,4.463,0,9.918c0,5.456,4.463,9.918,9.918,9.918
	c5.456,0,9.918-4.463,9.918-9.918C19.837,4.463,15.474,0,9.918,0"/>
<polygon fill="#00A685" points="12.994,13.19 15.572,13.19 14.283,11.009 "/>
<polygon fill="#00A685" points="11.804,6.744 8.133,6.744 6.25,9.918 8.133,13.19 11.804,13.19 13.688,9.918 "/>
</svg>
