<?xml version="1.0" encoding="utf-8"?>
<!-- Generator: Adobe Illustrator 16.0.0, SVG Export Plug-In . SVG Version: 6.00 Build 0)  -->
<!DOCTYPE svg PUBLIC "-//W3C//DTD SVG 1.1//EN" "http://www.w3.org/Graphics/SVG/1.1/DTD/svg11.dtd">
<svg version="1.1" id="Layer_1" xmlns="http://www.w3.org/2000/svg" xmlns:xlink="http://www.w3.org/1999/xlink" x="0px" y="0px"
	 width="19.84px" height="19.84px" viewBox="0 0 19.84 19.84" enable-background="new 0 0 19.84 19.84" xml:space="preserve">
<path fill="#00A685" d="M7.746,8.701c-0.792,0-1.583,0.396-1.781,0.89h3.362C9.229,9.195,8.635,8.701,7.746,8.701"/>
<path fill="#00A685" d="M11.996,8.701c-0.791,0-1.582,0.396-1.779,0.89h3.361C13.578,9.195,12.887,8.701,11.996,8.701"/>
<path fill="#00A685" d="M9.92,14.732c1.188,0,2.076-0.494,2.275-1.285h-4.45C7.844,14.238,8.734,14.732,9.92,14.732"/>
<path fill="#00A685" d="M9.92,17.303c-3.757-0.791-5.734-6.229-5.734-12.656C7.152,4.943,6.757,5.042,9.92,5.042
	c3.164,0,2.77,0,5.736-0.396C15.656,11.568,13.678,16.609,9.92,17.303 M9.92,0C4.482,0,0.033,4.449,0.033,9.887
	c0,5.439,4.449,9.888,9.887,9.888c5.438,0,9.887-4.449,9.887-9.888C19.807,4.35,15.357,0,9.92,0"/>
</svg>
