<?xml version="1.0" encoding="utf-8"?>
<!-- Generator: Adobe Illustrator 16.0.0, SVG Export Plug-In . SVG Version: 6.00 Build 0)  -->
<!DOCTYPE svg PUBLIC "-//W3C//DTD SVG 1.1//EN" "http://www.w3.org/Graphics/SVG/1.1/DTD/svg11.dtd">
<svg version="1.1" id="Layer_1" xmlns="http://www.w3.org/2000/svg" xmlns:xlink="http://www.w3.org/1999/xlink" x="0px" y="0px"
	 width="19.84px" height="19.84px" viewBox="0 0 19.84 19.84" enable-background="new 0 0 19.84 19.84" xml:space="preserve">
<path fill="#00A685" d="M5.938,10.098C4.353,9.603,3.957,8.315,3.957,7.622c-0.1-1.486,1.089-2.674,2.575-2.873
	c1.883-0.198,2.675,1.585,2.874,2.18c0.099,0.297,0.099,0.693-0.199,0.99L7.325,9.9C7.325,10,6.929,10.495,5.938,10.098
	 M18.419,14.556c-0.396,0-0.692,0.199-1.089,0.396c-0.396,0.396-0.892,0.693-1.388,0.693c-0.594,0-1.188-0.198-1.683-0.693
	c-0.099,0.099-0.495,0.198-0.893,0l-5.448-4.062c-0.298-0.198-0.396-0.396-0.198-0.693l1.685-1.981c0.197-0.297,0.495,0,0.495,0
	l4.755,5.25c0,0,0.197,0.198,0.197,0.595c0,0.199,0,0.396,0.197,0.595c0.199,0.198,0.596,0.198,0.793,0.198
	c0.298,0,0.595-0.198,0.893-0.396c0.396-0.396,0.99-0.692,1.584-0.692c0.197,0,0.496,0,0.693,0.197
	c0.892-2.08,1.189-4.557,0.396-6.934c-1.585-5.25-7.132-8.124-12.382-6.638C1.778,1.976-1.096,7.523,0.39,12.773
	c1.586,5.249,7.133,8.122,12.383,6.637c2.674-0.793,4.655-2.575,5.845-4.755C18.718,14.556,18.618,14.556,18.419,14.556"/>
</svg>
