<?xml version="1.0" encoding="utf-8"?>
<!-- Generator: Adobe Illustrator 16.0.0, SVG Export Plug-In . SVG Version: 6.00 Build 0)  -->
<!DOCTYPE svg PUBLIC "-//W3C//DTD SVG 1.1//EN" "http://www.w3.org/Graphics/SVG/1.1/DTD/svg11.dtd">
<svg version="1.1" id="Layer_1" xmlns="http://www.w3.org/2000/svg" xmlns:xlink="http://www.w3.org/1999/xlink" x="0px" y="0px"
	 width="85.04px" height="85.04px" viewBox="0 0 85.04 85.04" enable-background="new 0 0 85.04 85.04" xml:space="preserve">
<g>
	<path fill="#FFFFFF" d="M14.402,73.043l-0.439-0.439l0.372-0.372l-2.395-2.395l-0.533,0.533l-0.44-0.44l1.051-1.051l2.84,2.83
		l0.372-0.372l0.439,0.439L14.402,73.043z"/>
	<path fill="#FFFFFF" d="M16.426,71.019l-0.439-0.439l0.112-2.761c0.005-0.269-0.127-0.598-0.278-0.749
		c-0.312-0.312-0.816-0.316-1.129-0.004c-0.337,0.337-0.304,0.88,0.048,1.231l-0.518,0.518c-0.02-0.02-0.122-0.122-0.142-0.142
		c-0.498-0.498-0.484-1.49,0.117-2.092c0.577-0.577,1.574-0.596,2.102-0.068c0.348,0.348,0.488,0.82,0.475,1.246l-0.078,2.111
		l0.963-0.963l-0.372-0.372l0.518-0.518l0.812,0.812L16.426,71.019z"/>
	<path fill="#FFFFFF" d="M17.805,67.401l-0.41-0.41l1.178-1.178l0.41,0.41L17.805,67.401z"/>
	<path fill="#FFFFFF" d="M19.394,62.373c-0.2,0.2-0.66,0.434-0.836,0.609c-0.103,0.103-0.26,0.338-0.298,0.524l-0.538-0.108
		c0.039-0.234,0.156-0.498,0.362-0.704c0.137-0.137,0.571-0.347,0.786-0.562c0.132-0.132,0.216-0.323,0.245-0.47l0.591,0.103
		C19.682,61.976,19.542,62.226,19.394,62.373z M22.038,65.407l-0.439-0.439l0.343-0.343l-1.223-1.223l0.396,2.929l-0.762,0.762
		l-0.439-0.439l0.342-0.342L18.7,64.757l-0.342,0.342l-0.439-0.439l1.173-1.173l0.439,0.439l-0.343,0.343l1.261,1.261l-0.409-2.991
		l0.737-0.737l0.439,0.439l-0.342,0.342l1.555,1.555l0.342-0.342l0.439,0.439L22.038,65.407z"/>
	<path fill="#FFFFFF" d="M26.672,60.772l-0.439-0.439l0.342-0.342l-1.555-1.555l-1.197,1.197l1.555,1.555l0.342-0.342l0.439,0.439
		l-1.173,1.173l-0.439-0.439l0.343-0.343l-1.555-1.555l-0.343,0.343l-0.439-0.439l2.859-2.859l0.439,0.439l-0.342,0.342l1.555,1.555
		l0.342-0.342l0.439,0.439L26.672,60.772z"/>
	<path fill="#FFFFFF" d="M26.463,56.114l0.332,0.332c-0.093-0.327,0.083-0.864,0.406-1.188c0.723-0.723,1.886-0.743,2.59-0.039
		s0.684,1.867-0.039,2.59c-0.318,0.318-0.846,0.504-1.188,0.406l0.763,0.763l0.342-0.342l0.439,0.439l-1.173,1.173l-0.439-0.439
		l0.342-0.342l-2.425-2.425l-0.342,0.342l-0.439-0.439L26.463,56.114z M27.662,55.719c-0.44,0.44-0.432,1.162,0.019,1.612
		s1.173,0.46,1.613,0.02c0.439-0.439,0.43-1.162-0.021-1.612S28.101,55.279,27.662,55.719z"/>
	<path fill="#FFFFFF" d="M32.622,54.94c-0.738,0.738-1.91,0.768-2.614,0.063s-0.675-1.876,0.063-2.614
		c0.743-0.743,1.916-0.773,2.62-0.069S33.365,54.197,32.622,54.94z M30.531,52.85c-0.454,0.454-0.456,1.187-0.006,1.637
		s1.184,0.449,1.638-0.005c0.455-0.455,0.46-1.192,0.01-1.643S30.986,52.395,30.531,52.85z"/>
	<path fill="#FFFFFF" d="M35.393,50.692l0.602-0.602c0.221,0.65,0.063,1.413-0.479,1.955c-0.738,0.738-1.911,0.769-2.615,0.064
		s-0.674-1.877,0.064-2.615c0.742-0.742,1.915-0.772,2.619-0.068c0.073,0.073,0.132,0.151,0.19,0.229l-2.116,2.116
		c0.439,0.254,1.017,0.196,1.398-0.186C35.301,51.343,35.409,51.011,35.393,50.692z M33.224,51.328l1.579-1.579
		c-0.441-0.234-1.002-0.17-1.378,0.206C33.048,50.332,32.984,50.893,33.224,51.328z"/>
	<path fill="#FFFFFF" d="M38.258,49.304c-0.259,0.259-0.729,0.455-1.051,0.445l0.244,0.244l-0.41,0.41l-0.718-0.718l0.464-0.464
		c0.273,0.176,0.685-0.011,0.914-0.24c0.312-0.312,0.426-0.709,0.26-0.875c-0.226-0.226-0.554-0.171-0.783,0.059l-0.503,0.503
		l-0.439-0.439l0.498-0.498c0.186-0.186,0.244-0.42,0.059-0.605c-0.2-0.2-0.455-0.123-0.738,0.16c-0.2,0.2-0.318,0.582-0.264,0.852
		l-0.42,0.42l-0.675-0.675l0.42-0.42l0.249,0.249c-0.111-0.387,0.162-0.777,0.343-0.958c0.499-0.499,1.173-0.567,1.549-0.191
		c0.191,0.191,0.274,0.587,0.187,0.88c0.312-0.176,0.763-0.126,1.036,0.147C38.889,47.999,38.792,48.771,38.258,49.304z"/>
	<path fill="#FFFFFF" d="M42.125,46.64l-0.66-0.66l-1.696,1.696l0.66,0.66l-0.42,0.42l-1.095-1.095l0.215-0.215l-0.895-2.225
		l-0.328,0.328l-0.439-0.439l0.953-0.953l2.815,1.183l0.215-0.215l1.095,1.095L42.125,46.64z M38.752,44.968l0.86,1.985l1.13-1.13
		L38.752,44.968z"/>
	<path fill="#FFFFFF" d="M46.574,40.871l-0.439-0.439l0.371-0.371l-1.994-1.994l1.402,3.465l-0.391,0.391l-3.456-1.383l1.979,1.979
		l0.371-0.371l0.439,0.439l-1.25,1.251l-0.439-0.439l0.371-0.371l-2.395-2.395l-0.371,0.371l-0.44-0.44l1.046-1.046l3.579,1.428
		l-1.448-3.559l1.042-1.041l0.439,0.44l-0.371,0.371l2.395,2.395l0.371-0.371l0.439,0.439L46.574,40.871z"/>
	<path fill="#FFFFFF" d="M48.555,34.023l0.439,0.439l-0.342,0.342l1.555,1.555l0.342-0.342l0.439,0.439l-0.832,0.831l-0.332-0.332
		c0.098,0.342-0.088,0.869-0.404,1.187c-0.725,0.724-1.887,0.744-2.592,0.04c-0.703-0.704-0.684-1.867,0.041-2.591
		c0.322-0.322,0.859-0.498,1.186-0.405l-0.332-0.332L48.555,34.023z M47.328,36.052c-0.439,0.44-0.432,1.162,0.02,1.612
		c0.449,0.45,1.172,0.46,1.613,0.02c0.439-0.439,0.43-1.162-0.021-1.612C48.49,35.621,47.768,35.612,47.328,36.052z"/>
	<path fill="#FFFFFF" d="M49.582,32.996l0.332,0.332c-0.094-0.327,0.082-0.864,0.406-1.188c0.723-0.724,1.885-0.743,2.59-0.039
		c0.703,0.704,0.684,1.866-0.039,2.59c-0.318,0.318-0.846,0.504-1.188,0.406l0.762,0.763l0.342-0.342l0.439,0.439l-1.172,1.173
		l-0.439-0.439l0.342-0.342l-2.426-2.425l-0.342,0.342l-0.439-0.439L49.582,32.996z M50.779,32.601
		c-0.439,0.44-0.432,1.162,0.02,1.612c0.449,0.45,1.172,0.46,1.613,0.02c0.439-0.439,0.43-1.163-0.02-1.613
		C51.941,32.169,51.219,32.161,50.779,32.601z"/>
	<path fill="#FFFFFF" d="M56.068,31.377l-1.721,1.721l-0.439-0.439l0.336-0.337l-1.555-1.555l-0.336,0.337l-0.439-0.439l1.162-1.163
		l0.439,0.439l-0.336,0.337l0.42,0.421l0.914-0.914c0.469-0.469,1.197-0.396,1.564-0.03C56.611,30.287,56.459,30.986,56.068,31.377z
		 M54.832,30.346l-0.793,0.792l0.695,0.694l0.791-0.792c0.23-0.229,0.299-0.522,0.062-0.758
		C55.354,30.048,55.066,30.111,54.832,30.346z"/>
	<path fill="#FFFFFF" d="M58.814,28.63l-0.439-0.439l0.342-0.342l-1.223-1.223l0.396,2.928l-0.762,0.763l-0.439-0.439l0.342-0.343
		l-1.555-1.555l-0.342,0.343l-0.439-0.439l1.174-1.174l0.439,0.439l-0.344,0.343l1.262,1.261l-0.41-2.99l0.738-0.738l0.439,0.439
		l-0.342,0.342l1.555,1.555l0.342-0.342l0.439,0.439L58.814,28.63z"/>
	<path fill="#FFFFFF" d="M61.93,25.516l-0.439-0.439l0.342-0.342l-0.568-0.567l-1.197,1.197l0.572,0.562l0.342-0.342l0.439,0.439
		l-1.178,1.178l-0.439-0.439l0.342-0.342l-1.555-1.555l-0.342,0.342l-0.439-0.439l1.174-1.173l0.439,0.439l-0.342,0.342l0.547,0.548
		l1.197-1.197l-0.547-0.548l-0.342,0.342l-0.439-0.439l1.172-1.173l0.439,0.439l-0.342,0.342l1.555,1.555l0.342-0.342l0.439,0.439
		L61.93,25.516z"/>
	<path fill="#FFFFFF" d="M64.646,22.915c-0.738,0.738-1.91,0.768-2.613,0.063c-0.705-0.704-0.676-1.876,0.062-2.614
		c0.744-0.743,1.916-0.772,2.619-0.068C65.42,21,65.391,22.172,64.646,22.915z M62.557,20.824c-0.455,0.454-0.457,1.187-0.006,1.637
		c0.449,0.45,1.184,0.449,1.637-0.005c0.455-0.455,0.461-1.192,0.01-1.643C63.748,20.363,63.012,20.369,62.557,20.824z"/>
	<path fill="#FFFFFF" d="M65.24,16.527c-0.201,0.2-0.66,0.434-0.838,0.61c-0.102,0.103-0.258,0.337-0.297,0.523l-0.537-0.108
		c0.039-0.234,0.156-0.498,0.361-0.703c0.137-0.138,0.572-0.348,0.787-0.562c0.131-0.132,0.215-0.322,0.244-0.469l0.592,0.102
		C65.527,16.13,65.387,16.381,65.24,16.527z M67.883,19.562l-0.439-0.439l0.342-0.342l-1.223-1.223l0.396,2.928l-0.762,0.763
		l-0.439-0.439l0.342-0.343l-1.555-1.555l-0.342,0.343l-0.439-0.439l1.172-1.173l0.439,0.439l-0.342,0.342l1.262,1.261l-0.41-2.99
		l0.738-0.738l0.439,0.439l-0.342,0.342l1.555,1.555l0.342-0.342l0.439,0.439L67.883,19.562z"/>
	<path fill="#FFFFFF" d="M71.311,15.255l0.371-0.371l0.439,0.439l-1.289,1.29l-0.439-0.439l0.371-0.371l-2.395-2.395l-0.371,0.371
		l-0.441-0.44l1.408-1.407c0.586-0.587,1.574-0.704,2.16-0.118c0.65,0.649,0.498,1.604-0.02,2.122l-0.557,0.557L71.311,15.255z
		 M70.068,14.013l0.475-0.474c0.342-0.343,0.357-0.816,0.025-1.148c-0.328-0.327-0.846-0.337-1.178-0.004l-0.475,0.474
		L70.068,14.013z"/>
	<path fill="#FFFFFF" d="M74.85,12.713c-0.738,0.737-1.91,0.768-2.615,0.063c-0.703-0.704-0.674-1.877,0.064-2.614
		c0.742-0.743,1.916-0.773,2.619-0.069C75.623,10.797,75.592,11.97,74.85,12.713z M72.758,10.622
		c-0.453,0.454-0.455,1.187-0.006,1.637c0.451,0.45,1.184,0.449,1.639-0.005c0.455-0.455,0.459-1.192,0.01-1.643
		C73.949,10.161,73.213,10.167,72.758,10.622z"/>
	<path fill="#FFFFFF" d="M80.76,8.006l-0.66-0.66l-3.734,3.734l-0.439-0.439l0.342-0.343l-1.555-1.555l-0.342,0.343l-0.439-0.439
		l1.174-1.174l0.439,0.439l-0.344,0.343l1.555,1.555l1.008-1.007l-1.555-1.555L75.867,7.59L75.428,7.15L76.6,5.978l0.439,0.439
		l-0.342,0.342l1.555,1.555l1.008-1.007l-1.555-1.555l-0.342,0.342l-0.439-0.439l1.172-1.173l0.439,0.439l-0.342,0.343l1.555,1.555
		l0.338-0.338l1.1,1.1L80.76,8.006z"/>
	<path fill="#FFFFFF" d="M82.486,4.959L82.047,4.52l0.342-0.342l-1.223-1.223l0.396,2.928l-0.764,0.763l-0.439-0.439l0.342-0.342
		L79.146,4.31l-0.342,0.342l-0.439-0.439l1.174-1.173l0.439,0.439L79.637,3.82l1.26,1.261l-0.41-2.99l0.738-0.738l0.439,0.439
		l-0.342,0.343l1.555,1.555l0.342-0.343l0.439,0.439L82.486,4.959z"/>
</g>
<g>
	<g>
		<polygon fill="#8E8F8F" points="10.021,81.683 6.729,78.405 10.021,78.405 		"/>
		
			<rect x="3.861" y="81.351" transform="matrix(0.707 -0.7072 0.7072 0.707 -55.8063 28.7173)" fill="#8E8F8F" width="5.789" height="0.72"/>
	</g>
	<g>
		<polygon fill="#8E8F8F" points="1.123,77.402 4.415,80.68 1.123,80.68 		"/>
		
			<rect x="1.493" y="77.014" transform="matrix(-0.7069 0.7073 -0.7073 -0.7069 62.2134 128.9697)" fill="#8E8F8F" width="5.788" height="0.721"/>
	</g>
</g>
</svg>
