<?xml version="1.0" encoding="utf-8"?>
<!-- Generator: Adobe Illustrator 16.0.0, SVG Export Plug-In . SVG Version: 6.00 Build 0)  -->
<!DOCTYPE svg PUBLIC "-//W3C//DTD SVG 1.1//EN" "http://www.w3.org/Graphics/SVG/1.1/DTD/svg11.dtd">
<svg version="1.1" id="Layer_1" xmlns="http://www.w3.org/2000/svg" xmlns:xlink="http://www.w3.org/1999/xlink" x="0px" y="0px"
	 width="62.36px" height="62.36px" viewBox="0 0 62.36 62.36" enable-background="new 0 0 62.36 62.36" xml:space="preserve">
<g>
	<path fill="#8E8F8F" d="M14.098,12.129l-3.446,1.403l0.337,0.337l-0.439,0.439l-1.197-1.197l0.439-0.439l0.392,0.392l0.606-0.255
		l1.227-2.762L11.679,9.71l0.439-0.439l1.134,1.134l-0.439,0.439l-0.289-0.289l-0.895,1.912l1.951-0.855l-0.289-0.289l0.439-0.439
		l1.144,1.144l-0.439,0.439L14.098,12.129z"/>
	<path fill="#8E8F8F" d="M13.849,15.868l0.439-0.439l0.288,0.288l0.861-1.955l-1.956,0.86l0.289,0.289l-0.439,0.439l-1.13-1.13
		l0.439-0.439l0.338,0.338l2.199-0.91l-0.288-0.288l0.439-0.439l0.938,0.938l-1.188,2.801l0.337,0.337l-0.439,0.439L13.849,15.868z"
		/>
	<path fill="#8E8F8F" d="M15.892,16.622l0.519,0.519l-0.645,0.645l-0.519-0.519L15.892,16.622z"/>
	<path fill="#8E8F8F" d="M17.613,19.633l0.435-0.435l0.366,0.366l2.404-2.404l-0.371-0.371l0.44-0.44l1.29,1.29l-0.44,0.44
		l-0.371-0.371l-2.399,2.399l1.212,1.212l2.399-2.399l-0.371-0.371l0.44-0.44l1.29,1.29l-0.44,0.44l-0.371-0.371l-2.399,2.399
		l1.212,1.212l2.399-2.399l-0.372-0.372l0.44-0.44l1.291,1.291l-0.44,0.44l-0.372-0.372l-2.404,2.404l0.372,0.372l-0.435,0.435
		L17.613,19.633z"/>
	<path fill="#8E8F8F" d="M25.249,25.909l0.602,0.602c-0.651,0.22-1.413,0.063-1.956-0.479c-0.737-0.737-0.768-1.91-0.063-2.614
		s1.877-0.674,2.614,0.063c0.743,0.743,0.773,1.916,0.069,2.62c-0.073,0.073-0.151,0.132-0.229,0.19l-2.116-2.116
		c-0.254,0.439-0.196,1.017,0.185,1.397C24.599,25.817,24.931,25.925,25.249,25.909z M24.613,23.74l1.578,1.578
		c0.235-0.44,0.171-1.001-0.206-1.378C25.609,23.564,25.049,23.5,24.613,23.74z"/>
	<path fill="#8E8F8F" d="M28.758,25.91l-0.332,0.332c0.327-0.093,0.865,0.084,1.188,0.406c0.724,0.724,0.743,1.886,0.039,2.59
		s-1.866,0.685-2.59-0.039c-0.317-0.317-0.504-0.846-0.406-1.188l-0.763,0.763l0.343,0.343l-0.439,0.439l-1.174-1.174l0.439-0.439
		l0.343,0.343l2.425-2.425l-0.343-0.343l0.439-0.439L28.758,25.91z M29.153,27.108c-0.439-0.439-1.162-0.432-1.612,0.019
		s-0.459,1.174-0.02,1.613c0.44,0.44,1.163,0.431,1.613-0.02S29.594,27.549,29.153,27.108z"/>
	<path fill="#8E8F8F" d="M31.267,31.927l0.602,0.602c-0.65,0.221-1.413,0.063-1.955-0.479c-0.738-0.738-0.769-1.911-0.064-2.615
		s1.877-0.674,2.615,0.064c0.742,0.742,0.772,1.915,0.068,2.619c-0.073,0.073-0.151,0.132-0.229,0.19l-2.116-2.116
		c-0.254,0.439-0.196,1.017,0.186,1.398C30.616,31.835,30.948,31.942,31.267,31.927z M30.631,29.758l1.579,1.579
		c0.234-0.441,0.17-1.002-0.206-1.378C31.627,29.582,31.066,29.518,30.631,29.758z"/>
	<path fill="#8E8F8F" d="M33.521,35.55l0.439-0.439l0.342,0.342l1.324-1.324l-2.096,0.709l-0.108-0.108l0.699-2.105l-1.319,1.319
		l0.342,0.342l-0.439,0.439l-1.173-1.173l0.439-0.439l0.342,0.342l1.555-1.555l-0.342-0.342l0.439-0.439l0.86,0.86l-0.729,2.184
		l2.18-0.732l0.855,0.855l-0.439,0.439l-0.342-0.342l-1.555,1.555l0.342,0.342l-0.439,0.439L33.521,35.55z"/>
	<path fill="#8E8F8F" d="M37.559,38.219l0.602,0.602c-0.651,0.22-1.413,0.063-1.956-0.479c-0.737-0.737-0.768-1.91-0.063-2.614
		s1.877-0.674,2.614,0.063c0.743,0.743,0.773,1.916,0.069,2.62c-0.073,0.073-0.151,0.132-0.229,0.19l-2.116-2.116
		c-0.254,0.439-0.196,1.017,0.185,1.397C36.908,38.127,37.24,38.234,37.559,38.219z M36.923,36.05l1.578,1.578
		c0.235-0.44,0.171-1.001-0.206-1.378C37.919,35.874,37.358,35.81,36.923,36.05z"/>
	<path fill="#8E8F8F" d="M42.563,39.716l-0.807,0.807l-0.421-0.421l0.367-0.367l-0.522-0.522l-1.555,1.555l0.347,0.347l-0.439,0.439
		L38.36,40.38L38.8,39.94l0.337,0.337l1.555-1.555L40.169,38.2l-0.367,0.367l-0.421-0.421l0.807-0.807L42.563,39.716z"/>
	<path fill="#8E8F8F" d="M42.021,44.041l-1.72-1.72l0.439-0.439l0.337,0.337l1.555-1.555l-0.337-0.337l0.439-0.439l1.163,1.163
		l-0.439,0.439l-0.338-0.338L42.7,41.573l0.914,0.914c0.47,0.47,0.396,1.197,0.03,1.563C43.111,44.584,42.413,44.433,42.021,44.041z
		 M43.053,42.805l-0.792-0.792l-0.694,0.694l0.792,0.792c0.229,0.229,0.523,0.299,0.759,0.063
		C43.352,43.328,43.287,43.039,43.053,42.805z"/>
	<path fill="#8E8F8F" d="M45.664,46.324l0.601,0.601c-0.65,0.221-1.412,0.064-1.955-0.479c-0.738-0.738-0.768-1.91-0.063-2.614
		s1.876-0.675,2.614,0.063c0.743,0.743,0.773,1.916,0.069,2.62c-0.073,0.073-0.151,0.132-0.229,0.19l-2.117-2.117
		c-0.254,0.439-0.195,1.018,0.186,1.398C45.013,46.231,45.346,46.34,45.664,46.324z M45.027,44.154l1.579,1.579
		c0.235-0.44,0.171-1.001-0.206-1.378C46.024,43.979,45.463,43.914,45.027,44.154z"/>
	<path fill="#8E8F8F" d="M50.17,47.322c0.377,0.377,0.406,0.943,0.063,1.286c-0.214,0.214-0.571,0.269-0.865,0.18
		c0.226,0.323,0.123,0.826-0.146,1.095c-0.372,0.372-1.012,0.348-1.442-0.083l-1.848-1.848l0.439-0.439l0.338,0.338l1.555-1.555
		l-0.338-0.338l0.439-0.439L50.17,47.322z M47.198,48.339l0.865,0.865c0.22,0.22,0.488,0.312,0.699,0.102
		c0.186-0.186,0.083-0.444-0.137-0.664l-0.865-0.865L47.198,48.339z M48.2,47.337l0.802,0.802c0.181,0.181,0.449,0.215,0.626,0.038
		c0.17-0.17,0.112-0.405-0.078-0.596l-0.797-0.797L48.2,47.337z"/>
	<path fill="#8E8F8F" d="M50.039,52.176c-0.738-0.738-0.763-1.905-0.059-2.609s1.852-0.699,2.565,0.015
		c0.273,0.273,0.475,0.758,0.44,1.075l0.259-0.259l0.41,0.41l-0.743,0.743l-0.41-0.41c0.055-0.387-0.079-0.763-0.362-1.046
		c-0.454-0.454-1.191-0.461-1.642-0.011s-0.459,1.174,0.01,1.643c0.278,0.278,0.758,0.406,1.129,0.279l0.518,0.518
		C51.505,52.851,50.558,52.694,50.039,52.176z"/>
	<path fill="#8E8F8F" d="M55.142,52.294l-0.439,0.439l-0.342-0.342l-0.606,0.606l1.306,0.093l-0.161-0.161l0.439-0.439l1.1,1.1
		l-0.439,0.439l-0.343-0.343l-1.521-0.093l0.029,1.711l0.343,0.343l-0.439,0.439l-1.193-1.193l0.439-0.439l0.206,0.206l0.005-1.433
		l-0.719,0.719l0.342,0.342l-0.439,0.439l-1.173-1.173l0.439-0.439l0.342,0.342l1.555-1.555l-0.342-0.342l0.439-0.439L55.142,52.294
		z"/>
	<path fill="#8E8F8F" d="M59.634,56.786l-0.439,0.439l-0.342-0.342l-1.555,1.555l0.342,0.342L57.2,59.22l-0.83-0.83l0.332-0.332
		c-0.343,0.097-0.87-0.089-1.188-0.406c-0.724-0.724-0.744-1.887-0.04-2.591s1.867-0.684,2.591,0.04
		c0.322,0.322,0.498,0.859,0.406,1.188l0.332-0.332L59.634,56.786z M57.605,55.561c-0.44-0.44-1.162-0.432-1.612,0.019
		s-0.46,1.173-0.02,1.613c0.439,0.439,1.163,0.431,1.613-0.02S58.045,56,57.605,55.561z"/>
	<path fill="#8E8F8F" d="M58.834,60.854l0.439-0.439l0.298,0.298l0.353-0.353l-0.627-0.605l-1.343,0.22l-0.558-0.558l0.439-0.439
		l0.338,0.338l1.007-0.138c-0.352-0.371-0.309-0.963,0.053-1.324c0.406-0.406,1.062-0.405,1.462-0.005l1.706,1.706l-0.439,0.439
		l-0.347-0.347l-1.555,1.555l0.347,0.347l-0.439,0.439L58.834,60.854z M61.126,59.157l-0.689-0.689
		c-0.215-0.215-0.543-0.238-0.733-0.048c-0.21,0.21-0.19,0.562,0.034,0.786l0.67,0.67L61.126,59.157z"/>
</g>
<g>
	<g>
		<polygon fill="#8F8F8F" points="2.907,10.231 6.187,6.938 6.187,10.231 		"/>
		
			<rect x="-0.013" y="6.606" transform="matrix(-0.7071 -0.7071 0.7071 -0.7071 -0.0065 13.928)" fill="#8F8F8F" width="5.789" height="0.719"/>
	</g>
	<g>
		<polygon fill="#8F8F8F" points="7.189,1.333 3.911,4.625 3.911,1.333 		"/>
		
			<rect x="4.32" y="4.234" transform="matrix(0.7073 0.7069 -0.7069 0.7073 5.3596 -3.7552)" fill="#8F8F8F" width="5.788" height="0.721"/>
	</g>
</g>
</svg>
