<?xml version="1.0" encoding="utf-8"?>
<!-- Generator: Adobe Illustrator 16.0.0, SVG Export Plug-In . SVG Version: 6.00 Build 0)  -->
<!DOCTYPE svg PUBLIC "-//W3C//DTD SVG 1.1//EN" "http://www.w3.org/Graphics/SVG/1.1/DTD/svg11.dtd">
<svg version="1.1" id="Layer_1" xmlns="http://www.w3.org/2000/svg" xmlns:xlink="http://www.w3.org/1999/xlink" x="0px" y="0px"
	 width="42.52px" height="42.52px" viewBox="0 0 42.52 42.52" enable-background="new 0 0 42.52 42.52" xml:space="preserve">
<g>
	<path fill="#FFFFFF" d="M15.625,13.746l-3.446,1.403l0.337,0.337l-0.439,0.439l-1.197-1.197l0.439-0.439l0.392,0.392l0.606-0.255
		l1.227-2.762l-0.337-0.337l0.439-0.439l1.134,1.134L14.34,12.46l-0.289-0.289l-0.895,1.912l1.951-0.855l-0.289-0.289l0.439-0.439
		l1.144,1.144l-0.439,0.439L15.625,13.746z"/>
	<path fill="#FFFFFF" d="M15.376,17.485l0.439-0.439l0.288,0.288l0.861-1.955l-1.956,0.86l0.289,0.289l-0.439,0.439l-1.13-1.13
		l0.439-0.439l0.338,0.338l2.199-0.91l-0.288-0.288l0.439-0.439l0.938,0.938l-1.188,2.801l0.337,0.337l-0.439,0.439L15.376,17.485z"
		/>
	<path fill="#FFFFFF" d="M17.419,18.239l0.519,0.519l-0.645,0.645l-0.519-0.519L17.419,18.239z"/>
	<path fill="#FFFFFF" d="M22.346,18.787l-0.371-0.371l0.44-0.44L23.9,19.46c0.533,0.533,0.601,1.345,0.122,1.823
		c-0.264,0.264-0.846,0.357-1.152,0.225c0.209,0.416,0.146,1.037-0.216,1.398c-0.528,0.527-1.339,0.518-1.871-0.014l-1.643-1.643
		l0.439-0.439l0.371,0.371L22.346,18.787z M20.499,21.729l0.552,0.552c0.304,0.303,0.748,0.348,1.062,0.033
		c0.288-0.287,0.288-0.737-0.074-1.099l-0.513-0.513L20.499,21.729z M22.005,20.223l0.479,0.479c0.274,0.274,0.67,0.318,0.919,0.069
		c0.264-0.264,0.259-0.669-0.006-0.934l-0.503-0.503L22.005,20.223z"/>
	<path fill="#FFFFFF" d="M24.547,25.297l0.602,0.602c-0.65,0.221-1.413,0.062-1.955-0.479c-0.738-0.738-0.769-1.912-0.064-2.615
		c0.704-0.705,1.877-0.674,2.615,0.064c0.742,0.742,0.772,1.914,0.068,2.619c-0.073,0.072-0.151,0.131-0.229,0.189l-2.116-2.115
		c-0.254,0.439-0.196,1.016,0.186,1.398C23.896,25.205,24.229,25.312,24.547,25.297z M23.911,23.127l1.578,1.578
		c0.235-0.439,0.171-1-0.205-1.377C24.907,22.951,24.347,22.887,23.911,23.127z"/>
	<path fill="#FFFFFF" d="M29.552,26.793L28.745,27.6l-0.42-0.42l0.367-0.367l-0.523-0.523l-1.555,1.555l0.347,0.348l-0.439,0.439
		l-1.173-1.174l0.439-0.439l0.338,0.338l1.555-1.555l-0.523-0.523l-0.367,0.367l-0.42-0.42l0.807-0.807L29.552,26.793z"/>
	<path fill="#FFFFFF" d="M30.892,28.133l-0.439,0.439L30.11,28.23l-0.606,0.607l1.305,0.092l-0.161-0.162l0.439-0.439l1.1,1.1
		l-0.439,0.439l-0.342-0.342l-1.521-0.092l0.029,1.711l0.342,0.342l-0.439,0.439l-1.192-1.193l0.439-0.439l0.205,0.205l0.006-1.432
		l-0.719,0.719l0.342,0.342l-0.439,0.439l-1.173-1.172l0.439-0.439l0.342,0.342l1.555-1.555L29.279,27.4l0.439-0.439L30.892,28.133z
		"/>
	<path fill="#FFFFFF" d="M31.748,33.857l0.439-0.439l0.342,0.342l1.223-1.223l-2.928,0.396l-0.763-0.764l0.439-0.439l0.342,0.342
		l1.555-1.555l-0.342-0.342l0.439-0.439l1.173,1.174l-0.439,0.439l-0.342-0.342l-1.261,1.26l2.99-0.41l0.738,0.738l-0.439,0.439
		l-0.342-0.342l-1.555,1.555l0.342,0.342l-0.439,0.439L31.748,33.857z"/>
	<path fill="#FFFFFF" d="M34.862,36.971l0.439-0.439l0.342,0.342l0.567-0.566l-1.197-1.197l-0.562,0.572l0.342,0.342l-0.439,0.439
		l-1.178-1.178l0.439-0.439l0.342,0.342l1.555-1.555l-0.342-0.342l0.439-0.439l1.173,1.172l-0.439,0.439l-0.342-0.342l-0.548,0.549
		l1.197,1.197l0.548-0.549l-0.342-0.342l0.439-0.439l1.173,1.174l-0.439,0.439l-0.343-0.344l-1.555,1.555l0.343,0.344l-0.439,0.439
		L34.862,36.971z"/>
	<path fill="#FFFFFF" d="M41.637,38.879l-0.439,0.439l-0.343-0.344L39.3,40.529l0.343,0.344l-0.439,0.439l-0.831-0.832l0.332-0.332
		c-0.342,0.098-0.87-0.088-1.188-0.406c-0.724-0.723-0.743-1.885-0.039-2.59c0.704-0.703,1.866-0.684,2.59,0.039
		c0.322,0.322,0.499,0.861,0.406,1.188l0.332-0.332L41.637,38.879z M39.607,37.652c-0.439-0.439-1.162-0.432-1.612,0.018
		c-0.45,0.451-0.459,1.174-0.02,1.613s1.163,0.432,1.613-0.02C40.039,38.814,40.047,38.092,39.607,37.652z"/>
</g>
<g>
	<g>
		<polygon fill="#8E8F8F" points="3.664,10.093 6.941,6.801 6.941,10.093 		"/>
		
			<rect x="0.741" y="6.468" transform="matrix(0.7072 0.707 -0.707 0.7072 5.8921 -0.5709)" fill="#8E8F8F" width="5.789" height="0.721"/>
	</g>
	<g>
		<polygon fill="#8E8F8F" points="7.945,1.195 4.667,4.487 4.667,1.195 		"/>
		
			<rect x="5.079" y="4.099" transform="matrix(-0.7073 -0.7069 0.7069 -0.7073 10.4598 13.2501)" fill="#8E8F8F" width="5.788" height="0.721"/>
	</g>
</g>
</svg>
