<?xml version="1.0" encoding="utf-8"?>
<!-- Generator: Adobe Illustrator 16.0.0, SVG Export Plug-In . SVG Version: 6.00 Build 0)  -->
<!DOCTYPE svg PUBLIC "-//W3C//DTD SVG 1.1//EN" "http://www.w3.org/Graphics/SVG/1.1/DTD/svg11.dtd">
<svg version="1.1" id="Layer_1" xmlns="http://www.w3.org/2000/svg" xmlns:xlink="http://www.w3.org/1999/xlink" x="0px" y="0px"
	 width="17.01px" height="17.01px" viewBox="0 0 17.01 17.01" enable-background="new 0 0 17.01 17.01" xml:space="preserve">
<g>
	<path fill="#8F8F8F" d="M3.354,7.587L3.036,7.269L3.305,7L2.76,6.752L1.794,7.718l0.219,0.574l0.27-0.27l0.318,0.318L1.67,9.271
		L1.352,8.953L1.62,8.685L0.647,6.19L0.379,6.459L0.06,6.14l0.736-0.736l2.901,1.204l0.27-0.27l0.318,0.318L3.354,7.587z
		 M1.058,6.034l0.523,1.26l0.743-0.743L1.058,6.034z"/>
	<path fill="#8F8F8F" d="M5.273,5.754C5.068,5.959,4.732,6.047,4.506,6.02l0.208,0.208L4.406,6.535L3.759,5.888l0.351-0.351
		c0.297,0.156,0.612,0.089,0.824-0.123C5.192,5.155,5.21,4.749,4.973,4.512C4.796,4.335,4.471,4.369,4.251,4.589L3.957,4.883
		L3.603,4.528l0.305-0.305C4.084,4.047,4.078,3.75,3.894,3.565C3.71,3.382,3.377,3.418,3.144,3.651
		C2.956,3.839,2.923,4.175,3.062,4.412L2.694,4.78L2.057,4.143l0.308-0.308l0.202,0.202C2.534,3.8,2.669,3.446,2.843,3.272
		c0.364-0.364,0.966-0.521,1.383-0.104c0.198,0.198,0.301,0.557,0.221,0.766c0.271-0.131,0.711-0.047,0.941,0.184
		C5.772,4.503,5.805,5.223,5.273,5.754z"/>
	<path fill="#8F8F8F" d="M7.54,3.487C6.864,4.163,5.742,4.174,5.073,3.505C4.396,2.828,4.405,1.71,5.084,1.031
		C5.375,0.74,5.729,0.57,6.089,0.542L5.873,0.326L6.199,0l0.729,0.729L6.585,1.073C6.164,0.971,5.746,1.119,5.459,1.406
		C4.985,1.88,5.011,2.62,5.484,3.094s1.206,0.491,1.68,0.018C7.479,2.796,7.61,2.425,7.512,2.014l0.425-0.425
		C8.319,2.433,7.884,3.144,7.54,3.487z"/>
	<path fill="#8E8F8F" d="M4.644,10.603l-0.645,0.645l-0.763-0.763l2.578-2.578c0.924-0.924,2.332-1.043,3.162-0.213
		c0.459,0.459,0.62,1.468,0.391,2.002c0.722-0.364,1.799-0.254,2.426,0.373c0.916,0.916,0.898,2.324-0.025,3.248l-2.85,2.85
		l-0.763-0.763L8.8,14.759L4.644,10.603z M7.12,11.181l0.831-0.831c0.476-0.476,0.567-1.146,0.136-1.577
		c-0.459-0.459-1.162-0.451-1.62,0.007L5.593,9.653L7.12,11.181z M9.749,13.81l0.959-0.959c0.525-0.525,0.601-1.298,0.059-1.84
		c-0.5-0.5-1.28-0.501-1.908,0.127l-0.891,0.891L9.749,13.81z"/>
	<path fill="#8E8F8F" d="M14.603,8.956l0.645-0.645l0.763,0.763l-2.238,2.238l-0.763-0.763l0.645-0.645L9.497,5.749L8.853,6.394
		L8.09,5.631l2.442-2.442c1.018-1.018,2.73-1.221,3.747-0.204c1.129,1.129,0.866,2.782-0.033,3.682l-0.967,0.967L14.603,8.956z
		 M12.448,6.802l0.823-0.823c0.594-0.594,0.619-1.416,0.042-1.993C12.745,3.417,11.846,3.4,11.27,3.977L10.446,4.8L12.448,6.802z"/>
</g>
</svg>
