<?xml version="1.0" encoding="utf-8"?>
<!-- Generator: Adobe Illustrator 16.0.0, SVG Export Plug-In . SVG Version: 6.00 Build 0)  -->
<!DOCTYPE svg PUBLIC "-//W3C//DTD SVG 1.1//EN" "http://www.w3.org/Graphics/SVG/1.1/DTD/svg11.dtd">
<svg version="1.1" id="Layer_1" xmlns="http://www.w3.org/2000/svg" xmlns:xlink="http://www.w3.org/1999/xlink" x="0px" y="0px"
	 width="19.84px" height="19.84px" viewBox="0 0 19.84 19.84" enable-background="new 0 0 19.84 19.84" xml:space="preserve">
<g>
	<rect x="7.061" y="4.605" fill="#FFFFFF" width="5.05" height="3"/>
	<path fill="#FFFFFF" d="M9.908,0.011C4.458,0.011,0,4.47,0,9.919c0,5.449,4.458,9.909,9.908,9.909c5.449,0,9.908-4.459,9.908-9.909
		C19.915,4.47,15.456,0.011,9.908,0.011z M15.13,6.843c0,0.185-0.15,0.334-0.335,0.334h-0.099v4.397
		c0,0.526-0.426,0.952-0.951,0.952h-0.829v0.672h1.009v1.524h-1.618H6.866H5.248v-1.524h1.008V4.401c0-0.337,0.273-0.61,0.61-0.61
		h5.44c0.337,0,0.61,0.273,0.61,0.61v7.598h0.836c0.234,0,0.424-0.189,0.424-0.425V7.177h-0.383c-0.185,0-0.334-0.149-0.334-0.334
		V5.604c0-0.185,0.149-0.334,0.334-0.334h0.587c-0.032-0.371-0.161-1.266-0.658-1.837c-0.074-0.084-0.065-0.213,0.02-0.287
		c0.085-0.074,0.213-0.065,0.286,0.02c0.597,0.683,0.731,1.708,0.761,2.104h0.007c0.185,0,0.334,0.149,0.335,0.334V6.843z"/>
</g>
</svg>
