<?xml version="1.0" encoding="utf-8"?>
<!-- Generator: Adobe Illustrator 16.0.0, SVG Export Plug-In . SVG Version: 6.00 Build 0)  -->
<!DOCTYPE svg PUBLIC "-//W3C//DTD SVG 1.1//EN" "http://www.w3.org/Graphics/SVG/1.1/DTD/svg11.dtd">
<svg version="1.1" id="Layer_1" xmlns="http://www.w3.org/2000/svg" xmlns:xlink="http://www.w3.org/1999/xlink" x="0px" y="0px"
	 width="36.85px" height="36.85px" viewBox="0 0 36.85 36.85" enable-background="new 0 0 36.85 36.85" xml:space="preserve">
<g enable-background="new    ">
	<path fill="#8F8F8F" d="M3.413,29.782l-0.382,0.382l0.21,0.21l0.269-0.27l0.262,0.262l-0.931,0.931l-0.262-0.262l0.27-0.269
		l-0.21-0.21l-0.382,0.382c-0.387,0.387-1.023,0.38-1.42-0.017c-0.386-0.386-0.396-1.026-0.01-1.412l0.383-0.382l-0.209-0.209
		l-0.27,0.27L0.47,28.925l0.93-0.93l0.264,0.262l-0.27,0.27l0.209,0.209l0.382-0.383c0.386-0.386,1.026-0.375,1.411,0.01
		C3.792,28.759,3.8,29.396,3.413,29.782z M1.529,29.447L1.245,29.73c-0.238,0.236-0.27,0.594-0.04,0.824
		c0.24,0.24,0.595,0.205,0.832-0.032l0.283-0.283L1.529,29.447z M2.204,28.771l-0.283,0.283l0.792,0.792l0.283-0.283
		c0.237-0.237,0.272-0.591,0.032-0.831C2.798,28.501,2.441,28.532,2.204,28.771z"/>
	<path fill="#8F8F8F" d="M5.978,28.161l-0.318-0.318l0.248-0.248L5.023,26.71l0.285,2.119l-0.551,0.553l-0.318-0.318l0.247-0.248
		L3.56,27.69l-0.248,0.247l-0.318-0.318l0.85-0.849l0.318,0.318l-0.248,0.247l0.914,0.914L4.53,26.083l0.534-0.535l0.318,0.318
		l-0.248,0.248l1.127,1.127l0.248-0.248l0.318,0.318L5.978,28.161z"/>
	<path fill="#8F8F8F" d="M6.916,23.697l0.583,0.584l-0.304,0.304L6.931,24.32l-0.379,0.379l1.125,1.125l0.252-0.251l0.318,0.318
		l-0.85,0.85l-0.318-0.318l0.244-0.245l-1.125-1.125L5.82,25.431l0.265,0.265l-0.304,0.304l-0.584-0.583L6.916,23.697z"/>
	<path fill="#8F8F8F" d="M10.019,24.12L9.7,23.802l0.248-0.248l-0.412-0.412L8.669,24.01l0.415,0.407l0.247-0.248l0.318,0.318
		l-0.852,0.854L8.48,25.023l0.247-0.248l-1.126-1.126l-0.248,0.247l-0.318-0.318l0.85-0.849l0.318,0.318l-0.248,0.248l0.396,0.396
		l0.867-0.868l-0.396-0.396l-0.248,0.248l-0.318-0.318l0.85-0.849l0.318,0.318l-0.248,0.247l1.127,1.127l0.247-0.248l0.318,0.318
		L10.019,24.12z"/>
	<path fill="#8F8F8F" d="M11.952,21.202l0.436-0.436c0.158,0.471,0.045,1.023-0.348,1.416c-0.534,0.534-1.384,0.556-1.894,0.046
		s-0.488-1.359,0.046-1.894c0.538-0.538,1.387-0.559,1.896-0.049c0.054,0.053,0.096,0.108,0.139,0.166l-1.533,1.531
		c0.319,0.185,0.737,0.143,1.014-0.133C11.885,21.673,11.962,21.433,11.952,21.202z M10.38,21.662l1.143-1.144
		c-0.318-0.17-0.725-0.123-0.998,0.148C10.253,20.941,10.206,21.347,10.38,21.662z"/>
	<path fill="#8F8F8F" d="M14.119,20.104c-0.534,0.534-1.38,0.552-1.89,0.042s-0.507-1.341,0.01-1.858
		c0.199-0.198,0.549-0.343,0.779-0.318l-0.188-0.188l0.297-0.297l0.538,0.538l-0.298,0.297c-0.279-0.04-0.552,0.056-0.757,0.261
		c-0.329,0.33-0.333,0.863-0.007,1.189c0.325,0.325,0.85,0.333,1.189-0.007c0.201-0.202,0.293-0.549,0.201-0.817l0.375-0.375
		C14.607,19.042,14.495,19.728,14.119,20.104z"/>
	<path fill="#8F8F8F" d="M14.29,18.226l-0.297-0.297l0.853-0.853l0.297,0.297L14.29,18.226z"/>
	<path fill="#8F8F8F" d="M15.196,15.417l0.318,0.318l-0.248,0.248l0.438,0.438l0.068-0.945l-0.117,0.117l-0.318-0.318l0.796-0.796
		l0.318,0.318l-0.248,0.248l-0.067,1.1l1.24-0.021l0.248-0.248l0.318,0.318l-0.864,0.864l-0.318-0.318l0.148-0.148l-1.038-0.004
		l0.521,0.521l0.248-0.248l0.318,0.318l-0.85,0.85l-0.318-0.318l0.248-0.248l-1.126-1.126l-0.248,0.248l-0.318-0.318L15.196,15.417z
		"/>
	<path fill="#8F8F8F" d="M19.218,14.921L18.9,14.602l0.208-0.208l-1.416-0.623l0.624,1.416l0.209-0.209l0.318,0.318l-0.818,0.817
		l-0.318-0.318l0.244-0.244l-0.658-1.593l-0.209,0.209l-0.318-0.318l0.679-0.679l2.028,0.86l0.244-0.244l0.318,0.318L19.218,14.921z
		"/>
	<path fill="#8F8F8F" d="M20.167,11.082l1.016,2.496l0.244-0.245l0.318,0.318l-0.867,0.868l-0.318-0.318l0.283-0.283l-0.184-0.439
		l-2-0.888l-0.244,0.244l-0.318-0.318l0.821-0.821l0.318,0.318l-0.21,0.209l1.385,0.648l-0.619-1.413l-0.209,0.208l-0.318-0.318
		l0.828-0.828l0.318,0.318L20.167,11.082z"/>
	<path fill="#8F8F8F" d="M21.305,8.729c-0.146,0.145-0.432,0.346-0.56,0.474c-0.266,0.265-0.159,0.739,0.064,1.076
		c0.035-0.305,0.119-0.595,0.332-0.807c0.577-0.578,1.352-0.553,1.848-0.058c0.502,0.503,0.535,1.285-0.043,1.863
		c-0.52,0.52-1.401,0.487-1.968-0.079c-0.792-0.792-1.234-1.631-0.569-2.295c0.146-0.146,0.329-0.246,0.484-0.401
		c0.078-0.078,0.156-0.19,0.174-0.258l0.464,0.04C21.51,8.458,21.383,8.651,21.305,8.729z M21.474,9.804
		c-0.303,0.304-0.375,0.764-0.035,1.103c0.319,0.319,0.871,0.34,1.176,0.037c0.354-0.354,0.318-0.836,0-1.155
		C22.275,9.449,21.829,9.45,21.474,9.804z"/>
</g>
<g enable-background="new    ">
	<path fill="#8E8F8F" d="M4.893,32.509l0.445,0.445l-0.377,0.377l2.517,1.466l-1.743-3.13l0.431-0.431l3.13,1.743l-1.467-2.516
		l-0.375,0.375l-0.445-0.445l1.271-1.271l0.445,0.445l-0.376,0.376l2.056,3.69l-0.455,0.455l-3.051-1.693l1.688,3.056l-0.455,0.455
		l-3.69-2.056l-0.377,0.377l-0.445-0.445L4.893,32.509z"/>
	<path fill="#8E8F8F" d="M12.858,31.298c-0.747,0.748-1.936,0.778-2.648,0.064c-0.714-0.713-0.684-1.902,0.063-2.649
		c0.753-0.753,1.941-0.782,2.655-0.069C13.641,29.358,13.612,30.546,12.858,31.298z M10.739,29.179
		c-0.461,0.461-0.461,1.203-0.005,1.659s1.198,0.456,1.659-0.005s0.465-1.209,0.01-1.664C11.947,28.713,11.199,28.718,10.739,29.179
		z"/>
	<path fill="#8E8F8F" d="M13.917,26.011l-0.119,0.119c-0.342,0.342-0.312,0.926,0.063,1.303l0.927,0.926l0.342-0.342l0.446,0.445
		l-1.18,1.18l-0.445-0.446l0.347-0.347l-1.575-1.574l-0.346,0.346l-0.447-0.445l0.838-0.838l0.326,0.328
		c-0.094-0.303-0.015-0.759,0.238-1.012l0.113-0.113L13.917,26.011z"/>
	<path fill="#8E8F8F" d="M13.693,23.709l2.872,2.872l0.348-0.346l0.445,0.445l-1.188,1.188l-0.446-0.446l0.347-0.346l-2.422-2.433
		l-0.347,0.347l-0.445-0.445L13.693,23.709z"/>
	<path fill="#8E8F8F" d="M16.886,20.516l2.872,2.872l0.347-0.346l0.446,0.445l-0.842,0.842l-0.338-0.337
		c0.1,0.347-0.088,0.882-0.41,1.204c-0.733,0.732-1.912,0.752-2.625,0.039s-0.693-1.893,0.039-2.625
		c0.327-0.327,0.873-0.504,1.203-0.41l-0.742-0.744l-0.347,0.347l-0.445-0.445L16.886,20.516z M16.841,23.076
		c-0.446,0.446-0.437,1.179,0.021,1.634c0.455,0.456,1.188,0.467,1.634,0.021s0.436-1.179-0.021-1.634
		C18.02,22.64,17.287,22.63,16.841,23.076z"/>
	<path fill="#8E8F8F" d="M24.094,20.063c-0.945,0.946-2.516,0.96-3.451,0.024c-0.945-0.945-0.936-2.51,0.015-3.461
		c0.406-0.406,0.901-0.645,1.407-0.685l-0.303-0.302l0.455-0.455l1.02,1.02l-0.479,0.479c-0.59-0.143-1.175,0.065-1.576,0.466
		c-0.664,0.664-0.629,1.699,0.035,2.362c0.664,0.664,1.688,0.688,2.352,0.025c0.441-0.441,0.625-0.962,0.486-1.535l0.595-0.595
		C25.184,18.586,24.574,19.581,24.094,20.063z"/>
	<path fill="#8E8F8F" d="M23.379,14.023l2.872,2.873l0.347-0.347l0.445,0.446l-1.188,1.188l-0.446-0.446l0.347-0.347l-2.422-2.432
		l-0.348,0.347l-0.445-0.445L23.379,14.023z"/>
	<path fill="#8E8F8F" d="M27.771,11.334l0.446,0.446l-0.347,0.347l1.575,1.575l0.346-0.347l0.446,0.446l-0.842,0.842l-0.337-0.337
		c0.098,0.348-0.09,0.882-0.411,1.204c-0.733,0.733-1.912,0.754-2.626,0.041c-0.713-0.713-0.693-1.893,0.041-2.626
		c0.326-0.327,0.872-0.504,1.203-0.411l-0.337-0.337L27.771,11.334z M26.528,13.389c-0.445,0.446-0.436,1.179,0.02,1.635
		c0.456,0.456,1.189,0.466,1.635,0.02c0.445-0.445,0.436-1.179-0.02-1.634C27.706,12.953,26.973,12.944,26.528,13.389z"/>
	<path fill="#8E8F8F" d="M31.518,12.639c-0.282,0.282-0.604,0.367-0.916,0.342l0.229,0.228l-0.387,0.386l-0.777-0.778l0.41-0.411
		c0.412,0.194,0.67,0.114,0.941-0.158c0.224-0.223,0.307-0.496,0.1-0.703c-0.303-0.302-0.724,0.048-1.199,0.267
		c-0.485,0.218-0.881,0.317-1.283-0.084c-0.391-0.391-0.342-1.035,0.109-1.485c0.173-0.173,0.485-0.317,0.758-0.312l-0.164-0.164
		l0.387-0.386l0.645,0.644l-0.445,0.445c-0.184-0.104-0.477-0.039-0.659,0.144c-0.193,0.193-0.282,0.411-0.118,0.575
		c0.257,0.257,0.668-0.104,1.208-0.347c0.411-0.183,0.911-0.198,1.257,0.149C32.029,11.406,32.004,12.153,31.518,12.639z"/>
	<path fill="#8E8F8F" d="M33.621,10.535c-0.282,0.282-0.604,0.367-0.916,0.342l0.229,0.228l-0.387,0.386l-0.777-0.778l0.41-0.411
		c0.412,0.194,0.67,0.114,0.941-0.158c0.223-0.223,0.307-0.496,0.1-0.704c-0.303-0.302-0.724,0.048-1.199,0.267
		c-0.486,0.219-0.881,0.317-1.283-0.084c-0.391-0.391-0.342-1.035,0.109-1.485c0.173-0.173,0.485-0.317,0.758-0.312l-0.164-0.164
		l0.387-0.386l0.645,0.644l-0.446,0.446c-0.183-0.104-0.476-0.04-0.658,0.144c-0.193,0.193-0.282,0.411-0.118,0.575
		c0.257,0.257,0.668-0.104,1.207-0.347c0.411-0.183,0.912-0.198,1.258,0.148C34.132,9.303,34.107,10.05,33.621,10.535z"/>
</g>
</svg>
