<?xml version="1.0" encoding="utf-8"?>
<!-- Generator: Adobe Illustrator 16.0.0, SVG Export Plug-In . SVG Version: 6.00 Build 0)  -->
<!DOCTYPE svg PUBLIC "-//W3C//DTD SVG 1.1//EN" "http://www.w3.org/Graphics/SVG/1.1/DTD/svg11.dtd">
<svg version="1.1" id="Layer_1" xmlns="http://www.w3.org/2000/svg" xmlns:xlink="http://www.w3.org/1999/xlink" x="0px" y="0px"
	 width="19.84px" height="19.84px" viewBox="0 0 19.84 19.84" enable-background="new 0 0 19.84 19.84" xml:space="preserve">
<path fill="#FFFFFF" d="M16.359,14.675l-2.28,2.082c-0.396,0.296-0.991,0.296-1.288-0.099c-0.298-0.397-0.298-0.991,0.1-1.29
	l2.28-2.082c0.396-0.298,0.991-0.298,1.289,0.1C16.757,13.782,16.658,14.277,16.359,14.675 M9.717,16.459
	c-0.298-0.396-0.298-0.992,0.099-1.288l5.254-4.859c0.396-0.298,0.992-0.298,1.289,0.099c0.299,0.396,0.299,0.991-0.1,1.29
	l-5.255,4.857C10.709,16.855,10.114,16.757,9.717,16.459 M8.329,6.841l4.562,4.859l-1.289,1.288L7.04,8.13L8.329,6.841z
	 M3.372,9.518C3.074,9.122,3.074,8.526,3.47,8.229l5.256-4.858c0.396-0.298,0.991-0.298,1.289,0.099
	c0.297,0.396,0.297,0.992-0.1,1.289L4.66,9.617C4.264,9.915,3.669,9.915,3.372,9.518 M3.47,5.255l2.281-2.083
	c0.396-0.297,0.992-0.297,1.289,0.1c0.297,0.396,0.297,0.991-0.1,1.289L4.66,6.643C4.264,6.94,3.669,6.94,3.372,6.543
	C3.074,6.147,3.074,5.552,3.47,5.255 M9.915,0C4.462,0,0,4.462,0,9.915s4.462,9.915,9.915,9.915s9.915-4.462,9.915-9.915
	S15.368,0,9.915,0"/>
</svg>
